<svg width="23" height="6" viewBox="0 0 23 6" fill="none" xmlns="http://www.w3.org/2000/svg">
<path d="M0.56275 2.76C0.56275 1.352 1.74675 0.168 3.15475 0.168C4.56275 0.168 5.74675 1.352 5.74675 2.76C5.74675 4.168 4.56275 5.352 3.15475 5.352C1.74675 5.352 0.56275 4.168 0.56275 2.76ZM8.91025 2.76C8.91025 1.352 10.0943 0.168 11.5023 0.168C12.9103 0.168 14.0943 1.352 14.0943 2.76C14.0943 4.168 12.9103 5.352 11.5023 5.352C10.0943 5.352 8.91025 4.168 8.91025 2.76ZM17.2577 2.76C17.2577 1.352 18.4418 0.168 19.8498 0.168C21.2578 0.168 22.4418 1.352 22.4418 2.76C22.4418 4.168 21.2578 5.352 19.8498 5.352C18.4418 5.352 17.2577 4.168 17.2577 2.76Z" fill="black"/>
</svg>
