<svg width="128" height="33" viewBox="0 0 128 33" fill="none" xmlns="http://www.w3.org/2000/svg">
<g id="logo white">
<path id="Vector" d="M17.3763 28.3181C13.3805 28.3181 6.69023 25.085 6.69023 14.4447C6.69023 8.87704 8.80012 1.33399 16.0742 1.33399C22.8088 1.33399 25.7722 10.5383 26.2658 12.3341H27.1637L27.0292 1.28893H26.1313C26.1764 3.48896 21.2369 0.705105 16.2981 0.750176C5.97121 0.750176 0 8.47283 0 17.4525C0 27.1505 7.90222 32.6731 15.6249 32.6731C21.8207 32.6731 26.1764 28.1837 27.9715 21.3589L27.4328 21.0899C25.3672 27.9146 19.7101 28.3189 17.3756 28.3189L17.3763 28.3181Z" fill="white"/>
<path id="Vector_2" d="M54.3266 27.7787V5.77841C54.3266 3.08471 55.2245 2.18611 57.0203 2.18611V1.28821H44.8976V2.18611C46.6934 2.18611 47.5913 3.08401 47.5913 5.77841V16.1947H37.7137V5.77841C37.7137 3.08471 38.6116 2.18611 40.4074 2.18611V1.28821H28.2847V2.18611C30.0805 2.18611 30.9784 3.08401 30.9784 5.77841V27.7787C30.9784 30.4724 30.0805 31.371 28.2847 31.371V32.2689H40.4074V31.371C38.6116 31.371 37.7137 30.4731 37.7137 27.7787V16.7786H47.5913V27.7787C47.5913 30.4724 46.6934 31.371 44.8976 31.371V32.2689H57.0203V31.371C55.2245 31.371 54.3266 30.4731 54.3266 27.7787Z" fill="white"/>
<path id="Vector_3" d="M72.0149 0.749512C63.0352 0.749512 55.8521 8.02355 55.8521 16.7335C55.8521 25.4435 62.6528 32.4119 71.291 32.7908L71.3347 32.8077C71.3347 32.8077 71.3332 32.8014 71.3311 32.7922C71.5579 32.8014 71.7861 32.8077 72.0149 32.8077C80.8151 32.8077 87.9546 25.5336 87.9546 16.7335C87.9546 7.93341 80.8151 0.749512 72.0149 0.749512ZM72.0149 1.33333C76.9094 1.33333 79.6031 8.74118 79.6031 16.7786C79.6031 16.8807 79.6024 16.9828 79.6017 17.085C79.527 17.0828 79.458 17.0814 79.3911 17.0899C78.8791 17.1568 78.4735 17.4138 78.1502 17.8068C78.0946 17.8744 78.046 17.8878 77.9615 17.8688C77.0939 17.6751 76.2249 17.4871 75.3572 17.2941C75.2847 17.2779 75.2481 17.2976 75.2094 17.3554C74.3262 18.6533 73.4417 19.9498 72.5572 21.2463C72.5375 21.2751 72.522 21.3061 72.4973 21.3477C73.1699 21.5963 73.8291 21.8392 74.5129 22.0914C74.4629 22.1209 74.4347 22.1357 74.4086 22.1526C74.2889 22.2322 74.1608 22.3026 74.0509 22.3942C73.8284 22.5794 73.6847 22.8139 73.6819 23.1132C73.6812 23.1921 73.6579 23.2217 73.5798 23.2393C72.7804 23.4153 71.9818 23.5963 71.1832 23.7752C71.0466 23.8062 70.91 23.835 70.7663 23.866C70.7544 23.8202 70.7431 23.7857 70.7368 23.7505C70.5403 22.6949 70.3473 21.6392 70.1466 20.5843C70.0804 20.2364 70.0452 19.8815 69.8931 19.5519C69.6318 18.9871 69.2381 18.5681 68.6438 18.354C68.6107 18.342 68.579 18.3279 68.541 18.3131C68.5536 18.2864 68.5586 18.2709 68.5677 18.2575C68.7691 17.9645 68.9727 17.673 69.1727 17.3786C69.21 17.3244 69.2494 17.3343 69.3029 17.3448C69.46 17.3758 69.6184 17.418 69.7769 17.4223C70.1452 17.4321 70.3276 17.2638 70.3684 16.8976C70.3755 16.8349 70.3994 16.8026 70.4565 16.7814C70.5522 16.7462 70.6452 16.7047 70.7537 16.6596C70.6656 16.5554 70.5903 16.4666 70.5149 16.3772C70.6452 16.354 70.7586 16.349 70.8713 16.3554C70.9579 16.3603 70.9973 16.3356 71.003 16.2427C71.0128 16.0751 71.0396 15.9089 71.0509 15.742C71.0565 15.6504 71.0889 15.6265 71.1811 15.6314C71.4431 15.6455 71.5297 15.5166 71.4347 15.2716C71.4276 15.2525 71.4192 15.2342 71.4121 15.2159C71.3058 14.9377 71.1973 14.6596 71.0952 14.38C71.0832 14.3476 71.0931 14.292 71.1156 14.2659C71.3459 13.9969 71.3966 13.6941 71.2917 13.3617C71.2713 13.2969 71.279 13.2624 71.3361 13.2201C71.5487 13.0638 71.6044 12.8567 71.472 12.6286C71.3931 12.4926 71.2868 12.3602 71.1628 12.2652C70.9051 12.0673 70.6346 11.8835 70.3572 11.7152C69.8114 11.3849 69.2396 11.1123 68.5994 11.0229C68.1001 10.9532 67.636 11.0264 67.2452 11.3807C67.2114 11.4116 67.1557 11.4229 67.1078 11.4335C66.7543 11.5152 66.4867 11.7116 66.3106 12.0285C66.1529 12.3131 66.0951 12.6257 66.1142 12.9426C66.1592 13.6927 66.2163 14.442 66.2853 15.1906C66.3099 15.4553 66.3444 15.7258 66.4987 15.9589C66.5099 15.9765 66.5036 16.0117 66.4944 16.0349C66.3832 16.3349 66.2571 16.6286 66.0578 16.8814C65.9811 16.9793 65.8881 17.0878 65.7782 17.1321C65.2064 17.3645 64.6923 17.6765 64.2296 18.0589C64.212 17.6328 64.2029 17.2054 64.2029 16.7786C64.2029 8.74188 67.0311 1.33333 72.0149 1.33333ZM72.0149 32.2232C71.7347 32.2232 71.4621 32.1971 71.1959 32.1499C71.017 31.2492 70.7276 29.6006 70.7276 28.3541C70.7276 27.9569 70.7572 27.5196 70.803 27.0787C70.8854 27.0654 70.9663 27.0478 71.0452 27.0238C71.8917 26.764 72.6678 26.3527 73.3875 25.8379C74.1974 25.2583 74.877 24.5569 75.3692 23.685C75.4333 23.5717 75.515 23.4942 75.6256 23.4301C75.8481 23.3026 76.0495 23.1463 76.203 22.9371C76.3946 22.6766 76.3861 22.4104 76.1791 22.1646C76.1629 22.1456 76.1495 22.1238 76.1319 22.0998C76.146 22.0885 76.153 22.0815 76.1622 22.0766C76.3178 21.9984 76.4756 21.923 76.6291 21.8406C76.684 21.8118 76.7411 21.7752 76.7777 21.7266C77.4883 20.7956 78.1784 19.8491 78.8143 18.8652C79.1017 18.4209 79.3791 17.9709 79.5953 17.4871C79.4355 24.9266 76.7587 32.2239 72.0149 32.2239V32.2232Z" fill="white"/>
<path id="Vector_4" d="M86.605 2.18684C88.4008 2.18684 89.2994 3.08474 89.2994 5.77914V27.7794C89.2994 30.4731 88.4015 31.3717 86.605 31.3717V32.2696H98.7277V31.3717C96.9319 31.3717 96.034 30.4738 96.034 27.7794V5.77914C96.034 3.08544 96.9319 2.18684 98.7277 2.18684V1.28894H86.605V2.18684Z" fill="white"/>
<path id="Vector_5" d="M123.734 28.0485C122.207 23.2892 120.277 17.4525 112.016 17.4525H113.049C118.706 17.4525 122.926 13.9504 122.926 9.4158C122.881 5.06082 118.706 1.28894 113.049 1.28894H99.7134V2.18684C101.509 2.18684 102.407 3.08474 102.407 5.77914V27.7794C102.407 30.4731 101.509 31.3717 99.7134 31.3717V32.2696H111.836V31.3717C110.04 31.3717 109.142 30.4738 109.142 27.7794V17.5877C113.183 19.8328 115.024 23.604 115.922 26.2083C116.91 29.0816 118.795 32.2696 122.073 32.2696H128V31.3717C126.204 31.3717 124.677 30.6083 123.734 28.0492V28.0485ZM109.142 16.8687V1.73823H111.252C115.248 1.73823 116.191 5.41998 116.191 9.46088C116.191 13.5018 115.248 16.8687 111.252 16.8687H109.142Z" fill="white"/>
</g>
</svg>
