<svg width="32" height="32" viewBox="0 0 32 32" fill="none" xmlns="http://www.w3.org/2000/svg">
<path id="Vector" d="M29.6769 14.6639C29.7146 17.1045 29.164 19.5633 28.1214 21.7747C28.0826 21.8567 28.0249 21.9451 28.0282 22.0288C28.0695 23.0961 28.515 24.2218 28.7788 25.2581C29.0662 26.3879 29.3537 27.5174 29.6411 28.6472C29.7255 28.9795 30 30 30 30C30 30 28.8502 29.6633 28.4103 29.5502C26.5774 29.0785 24.7294 28.636 22.9096 28.1276C21.5274 27.7412 19.8782 28.9656 18.5291 29.2609C17.0305 29.5889 15.4799 29.6687 13.9539 29.5174C5.80501 28.7096 -0.152568 20.9614 1.18914 12.8991C2.5128 4.94313 10.9053 -0.570868 18.7502 1.40245C22.4358 2.3294 26.0555 4.72257 27.9415 8.06832C29.0894 10.1046 29.6416 12.3762 29.6769 14.6639Z" stroke="black" stroke-width="2" stroke-miterlimit="10"/>
</svg>
