<svg width="34" height="25" viewBox="0 0 34 25" fill="none" xmlns="http://www.w3.org/2000/svg">
<g id="notepad black outline thicker">
<path id="Vector" d="M1.43143 4.2908C1.43143 4.2908 21.5946 4.25061 21.9744 4.25061C22.703 4.42355 25.6305 7.35105 29.1787 8.37505C29.1787 8.37505 32.2397 9.22299 32.3464 9.31173C32.7011 9.60666 33.9368 13.3218 32.4552 15.4253C31.7171 16.4732 24.7151 23.4116 23.6861 24.349C23.6861 24.349 2.13011 24.5638 2.40591 24.359C2.6817 24.1542 4.24388 20.9184 2.45016 18.0722C2.29468 17.8256 11.2138 9.40335 11.2138 9.40335C11.2138 9.40335 5.54079 7.81964 1.94976 4.81033C1.73401 4.62949 1.15013 4.29127 1.43167 4.29127L1.43143 4.2908Z" stroke="black" stroke-linecap="round" stroke-linejoin="round"/>
<path id="Vector_2" d="M29.909 8.40955L28.9999 7.70273C26.4859 5.00892 27 1 26.8531 1.01317C26.8603 1.04091 5.99482 0.972743 5.96994 1.01317C5.87306 1.17032 6.20339 4.09137 6.20339 4.09137" stroke="black" stroke-miterlimit="10"/>
<path id="Vector_3" d="M11.2134 9.40294C12.1202 9.11591 32.346 9.31157 32.346 9.31157" stroke="black" stroke-miterlimit="10" stroke-linecap="round"/>
<path id="Vector_4" d="M2.5957 17.9294C2.59259 17.9294 23.0619 18.2851 23.6372 17.8718C24.2093 17.4608 32.1205 9.40283 32.1205 9.40283" stroke="black" stroke-miterlimit="10"/>
<path id="Vector_5" d="M3.12061 19.6362H24.1157L33.0231 10.9376" stroke="black" stroke-miterlimit="10"/>
<path id="Vector_6" d="M3.28223 21.7729H24.39L33.0235 12.9935" stroke="black" stroke-miterlimit="10"/>
<path id="Vector_7" d="M23.4971 17.9294C23.4971 17.9294 25.4769 20.805 23.6858 24.3487" stroke="black" stroke-miterlimit="10" stroke-linecap="round"/>
<path id="Vector_8" d="M28.6304 7.27173C28.6304 7.27173 29.8146 8.62127 30.9989 8.96738" stroke="black" stroke-miterlimit="10"/>
</g>
</svg>
