<svg width="26" height="26" viewBox="0 0 26 26" fill="none" xmlns="http://www.w3.org/2000/svg">
<path id="settings icon outline black thicker" d="M15.3626 24.5671L15.4799 22.6909C15.4919 22.4984 15.6225 22.3337 15.8071 22.2781C16.4193 22.0929 17.0115 21.8475 17.5754 21.5457C17.7452 21.4543 17.9543 21.4785 18.0989 21.6061L19.5088 22.8499C19.6916 23.0108 19.9679 23.0022 20.1402 22.8301L22.8304 20.1402C23.0023 19.9677 23.0109 19.6912 22.85 19.5083L21.6063 18.0984C21.4787 17.9538 21.4546 17.7452 21.5456 17.5751C21.8477 17.0115 22.0933 16.4192 22.2782 15.8069C22.3338 15.6223 22.4985 15.4917 22.691 15.4797L24.5671 15.3625C24.8104 15.3471 24.9998 15.1456 25 14.9019V11.0979C25 10.8542 24.8104 10.6527 24.5673 10.6373L22.691 10.5201C22.4985 10.5081 22.3338 10.3776 22.2782 10.1929C22.0931 9.58058 21.8477 8.98832 21.5456 8.42473C21.4546 8.25484 21.4787 8.04619 21.6063 7.9014L22.85 6.49156C23.0109 6.30857 23.0023 6.03229 22.8304 5.8596L20.1404 3.16973C19.9677 2.99797 19.6916 2.98936 19.5084 3.14987L18.0987 4.39376C17.9539 4.52113 17.7452 4.54529 17.5752 4.45407C17.0114 4.15214 16.4191 3.90696 15.807 3.72171C15.6223 3.66608 15.4917 3.50144 15.4797 3.3089L15.3625 1.43267C15.3469 1.18974 15.1454 1.00037 14.9019 1H11.0978C10.8543 1.00037 10.6527 1.18955 10.6372 1.43267C10.4332 4.45857 10.8784 3.17104 8.42464 4.45426C8.25475 4.54604 8.04571 4.52188 7.90111 4.39395L6.49122 3.15006C6.3084 2.98936 6.03212 2.99797 5.85979 3.16992L3.16963 5.85979C2.99767 6.03229 2.98906 6.30875 3.14996 6.49175L4.39371 7.90159C4.52126 8.04619 4.54543 8.25484 4.45439 8.42491C4.15226 8.98851 3.9067 9.58077 3.72182 10.1931C3.66619 10.3777 3.50135 10.5083 3.30899 10.5203L1.43288 10.6375C1.18956 10.6529 1.00019 10.8544 1 11.0981V14.9021C1 15.1458 1.18956 15.3473 1.43269 15.3627L3.30899 15.4799C3.50154 15.4919 3.66619 15.6224 3.72182 15.8071C3.90688 16.4194 4.15226 17.0117 4.45439 17.5753C4.54543 17.7452 4.52126 17.9538 4.39371 18.0986L3.14996 19.5084C2.98906 19.6914 2.99767 19.9677 3.16963 20.1404L5.8596 22.8303C6.03193 23.0026 6.30859 23.0112 6.49159 22.8501L7.90129 21.6062C8.0459 21.4785 8.25475 21.4545 8.42483 21.5459C8.98864 21.8479 9.58091 22.093 10.193 22.2783C10.3777 22.3339 10.5083 22.4986 10.5203 22.6911L10.6373 24.5673C10.6529 24.8104 10.8544 24.9996 11.0979 25H14.9021C15.1456 24.9996 15.3471 24.8101 15.3626 24.5671ZM6.99995 13.0002C7.0037 9.68809 9.68787 7.00403 13.0001 7.00028C16.3123 7.00403 18.9963 9.68809 19.0002 13C18.6719 20.9574 7.32943 20.9599 6.99995 13.0002Z" stroke="black" stroke-width="1.5" stroke-miterlimit="10"/>
</svg>
