<svg width="347" height="381" viewBox="0 0 347 381" fill="none" xmlns="http://www.w3.org/2000/svg">
<path d="M24.82 29.3L267.69 162.93L317.17 190.15L153.87 280L24.82 351C26.95 344.46 29.06 337.97 31.18 331.48L37.84 311.02C50.03 273.6 62.6301 234.91 74.9601 196.83C76.3301 192.59 76.32 187.68 74.92 183.36C58.27 132.02 41.29 79.87 24.82 29.3ZM0.620049 0.0100098C1.13005 1.66001 1.40004 2.60001 1.70004 3.53001C21.68 64.91 41.6801 126.28 61.6001 187.68C62.0801 189.15 62.11 191.05 61.64 192.51C47.1 237.4 32.47 282.27 17.86 327.14C12.18 344.58 6.50005 362.02 0.550049 380.33C116.1 316.76 230.97 253.56 346.22 190.15C230.89 126.7 116.04 63.51 0.630043 0.0100098H0.620049Z" fill="white"/>
</svg>
